<?xml version="1.0" encoding="UTF-8" standalone="no"?>
<!DOCTYPE svg PUBLIC "-//W3C//DTD SVG 1.1//EN"
 "http://www.w3.org/Graphics/SVG/1.1/DTD/svg11.dtd">
<!-- Generated by graphviz version 2.43.0 (0)
 -->
<!-- Title: %3 Pages: 1 -->
<svg width="336pt" height="152pt"
 viewBox="0.00 0.00 336.04 152.00" xmlns="http://www.w3.org/2000/svg" xmlns:xlink="http://www.w3.org/1999/xlink">
<g id="graph0" class="graph" transform="scale(1 1) rotate(0) translate(4 148)">
<title>%3</title>
<polygon fill="white" stroke="transparent" points="-4,4 -4,-148 332.04,-148 332.04,4 -4,4"/>
<!-- X1 -->
<g id="node1" class="node">
<title>X1</title>
<text text-anchor="middle" x="27" y="-122.9" font-family="Helvetica,sans-Serif" font-size="12.00" fill="#d9534f">X₁</text>
</g>
<!-- neuron -->
<g id="node4" class="node">
<title>neuron</title>
<ellipse fill="#f0f0f0" stroke="black" cx="170.52" cy="-72" rx="66.54" ry="66.54"/>
<text text-anchor="middle" x="170.52" y="-69.5" font-family="Helvetica,sans-Serif" font-size="10.00">f(ω₁·X₁ + ω₂·X₂ + b)</text>
</g>
<!-- X1&#45;&gt;neuron -->
<g id="edge1" class="edge">
<title>X1&#45;&gt;neuron</title>
<path fill="none" stroke="#337ab7" d="M54.29,-115.97C66.86,-111.17 82.59,-105.17 98.35,-99.16"/>
<polygon fill="#337ab7" stroke="#337ab7" points="100.04,-102.26 108.14,-95.42 97.55,-95.72 100.04,-102.26"/>
<text text-anchor="middle" x="79" y="-111.2" font-family="Helvetica,sans-Serif" font-size="11.00" fill="#337ab7">ω₁</text>
</g>
<!-- X2 -->
<g id="node2" class="node">
<title>X2</title>
<text text-anchor="middle" x="27" y="-68.9" font-family="Helvetica,sans-Serif" font-size="12.00" fill="#d9534f">X₂</text>
</g>
<!-- X2&#45;&gt;neuron -->
<g id="edge2" class="edge">
<title>X2&#45;&gt;neuron</title>
<path fill="none" stroke="#337ab7" d="M54.29,-72C65.61,-72 79.48,-72 93.63,-72"/>
<polygon fill="#337ab7" stroke="#337ab7" points="93.95,-75.5 103.95,-72 93.95,-68.5 93.95,-75.5"/>
<text text-anchor="middle" x="79" y="-75.2" font-family="Helvetica,sans-Serif" font-size="11.00" fill="#337ab7">ω₂</text>
</g>
<!-- bias -->
<g id="node3" class="node">
<title>bias</title>
<text text-anchor="middle" x="27" y="-14.9" font-family="Helvetica,sans-Serif" font-size="12.00">1</text>
</g>
<!-- bias&#45;&gt;neuron -->
<g id="edge3" class="edge">
<title>bias&#45;&gt;neuron</title>
<path fill="none" stroke="#337ab7" stroke-dasharray="1,5" d="M54.29,-28.03C66.86,-32.83 82.59,-38.83 98.35,-44.84"/>
<polygon fill="#337ab7" stroke="#337ab7" points="97.55,-48.28 108.14,-48.58 100.04,-41.74 97.55,-48.28"/>
<text text-anchor="middle" x="79" y="-41.2" font-family="Helvetica,sans-Serif" font-size="11.00" fill="#337ab7">b</text>
</g>
<!-- Y -->
<g id="node5" class="node">
<title>Y</title>
<text text-anchor="middle" x="301.04" y="-68.9" font-family="Helvetica,sans-Serif" font-size="12.00" fill="#5cb85c">ŷ</text>
</g>
<!-- neuron&#45;&gt;Y -->
<g id="edge4" class="edge">
<title>neuron&#45;&gt;Y</title>
<path fill="none" stroke="black" stroke-width="2" d="M237.28,-72C246.4,-72 255.48,-72 263.78,-72"/>
<polygon fill="black" stroke="black" stroke-width="2" points="263.83,-75.5 273.83,-72 263.83,-68.5 263.83,-75.5"/>
</g>
</g>
</svg>
